<svg width="69" height="69" viewBox="0 0 69 69" fill="none" xmlns="http://www.w3.org/2000/svg">
<path d="M27.3844 39.5744C27.1137 39.8451 26.9617 40.2122 26.9617 40.5951C26.9617 40.9779 27.1137 41.345 27.3844 41.6157C27.6551 41.8864 28.0222 42.0384 28.4051 42.0384C28.7879 42.0384 29.155 41.8864 29.4257 41.6157C31.1219 39.9194 32.8038 38.2232 34.5001 36.5557L39.5744 41.6157C39.7085 41.7497 39.8676 41.856 40.0427 41.9286C40.2178 42.0011 40.4055 42.0384 40.5951 42.0384C40.7846 42.0384 40.9723 42.0011 41.1474 41.9286C41.3225 41.856 41.4816 41.7497 41.6157 41.6157C41.7497 41.4816 41.856 41.3225 41.9286 41.1474C42.0011 40.9723 42.0384 40.7846 42.0384 40.5951C42.0384 40.4055 42.0011 40.2178 41.9286 40.0427C41.856 39.8676 41.7497 39.7085 41.6157 39.5744C39.9194 37.9069 38.2232 36.1963 36.5557 34.5001C37.7344 33.2926 38.9132 32.1282 40.0919 30.9494C40.6094 30.4319 41.0982 29.9144 41.6157 29.4257C41.8864 29.155 42.0384 28.7879 42.0384 28.4051C42.0384 28.0222 41.8864 27.6551 41.6157 27.3844C41.345 27.1137 40.9779 26.9617 40.5951 26.9617C40.2122 26.9617 39.8451 27.1137 39.5744 27.3844L34.5001 32.4674L29.4257 27.3844C29.155 27.1137 28.7879 26.9617 28.4051 26.9617C28.0222 26.9617 27.6551 27.1137 27.3844 27.3844C27.1137 27.6551 26.9617 28.0222 26.9617 28.4051C26.9617 28.7879 27.1137 29.155 27.3844 29.4257L32.4674 34.5001L27.3844 39.5744Z" fill="#4A9FF1"/>
<path d="M34.5001 63.0574C28.8521 63.0568 23.3311 61.3815 18.6352 58.2432C13.9394 55.1049 10.2795 50.6447 8.11855 45.4265C5.95755 40.2082 5.39242 34.4664 6.49464 28.927C7.59686 23.3876 10.3169 18.2994 14.3108 14.3059C18.3048 10.3124 23.3932 7.59281 28.9327 6.49115C34.4722 5.38949 40.214 5.95519 45.432 8.11672C50.6501 10.2782 55.1099 13.9385 58.2477 18.6347C61.3855 23.3309 63.0603 28.852 63.0603 34.5C63.0512 42.0716 60.0391 49.3304 54.685 54.6841C49.3308 60.0377 42.0717 63.049 34.5001 63.0574ZM34.5001 8.81764C29.4207 8.81821 24.4556 10.3249 20.2325 13.1473C16.0094 15.9697 12.7181 19.9809 10.7747 24.6738C8.8313 29.3667 8.32312 34.5305 9.3144 39.5122C10.3057 44.4939 12.7519 49.0698 16.3438 52.6612C19.9356 56.2527 24.5118 58.6984 29.4936 59.6891C34.4754 60.6798 39.6392 60.1711 44.3318 58.2272C49.0245 56.2832 53.0354 52.9915 55.8573 48.7681C58.6791 44.5447 60.1853 39.5794 60.1853 34.5C60.177 27.6907 57.4681 21.1627 52.6529 16.3481C47.8377 11.5334 41.3094 8.82525 34.5001 8.81764Z" fill="#4A9FF1"/>
</svg>
